<svg xmlns="http://www.w3.org/2000/svg" xmlns:xlink="http://www.w3.org/1999/xlink" width="48" height="48" viewBox="0 0 48 48"><defs><linearGradient id="b" x1="906.952" x2="931.379" y1="515.915" y2="546.094" gradientTransform="matrix(1.53785 0 0 1.53785 -1388.719 211.343)" gradientUnits="userSpaceOnUse" xlink:href="#a"/><linearGradient id="a"><stop offset="0" stop-color="#ffd800"/><stop offset="1" stop-color="#ff6100"/></linearGradient></defs><g transform="translate(0 -1004.362)"><rect width="48" height="48" y="1004.362" fill="url(#b)" rx="10.144" ry="10.144"/><path fill="#fff" style="line-height:normal;text-indent:0;text-align:start;text-decoration-line:none;text-decoration-style:solid;text-decoration-color:#000;text-transform:none;block-progression:tb;isolation:auto;mix-blend-mode:normal" d="m 20.732422,1012.3593 a 0.46671334,0.46671334 0 0 0 -0.464844,0.4668 l 0,2.0097 c -4.966863,1.6244 -8.327756,6.2858 -8.263672,11.5293 l -1.591797,0 A 0.41222024,0.41222024 0 0 0 10,1026.7772 l 0,2.1758 a 0.41222024,0.41222024 0 0 0 0.412109,0.4121 l 27.175782,0 A 0.41222024,0.41222024 0 0 0 38,1028.953 l 0,-2.1758 a 0.41222024,0.41222024 0 0 0 -0.412109,-0.4121 l -1.595703,0 c 0.06457,-5.2386 -3.288443,-9.9054 -8.259766,-11.5312 l 0,-2.0078 a 0.46671334,0.46671334 0 0 0 -0.464844,-0.4668 l -6.535156,0 z m 0.466797,0.9336 2.333984,0 0,4.666 0.933594,0 0,-4.666 2.333984,0 0,6.0664 a 0.46671334,0.46671334 0 1 0 0.931641,0 l 0,-3.5508 c 4.43833,1.5855 7.40152,5.8143 7.33789,10.5566 l -0.527343,0 a 0.41222024,0.41222024 0 1 0 0,0.8242 l 2.632812,0 0,1.3516 -26.351562,0 0,-1.3516 2.632812,0 a 0.41222024,0.41222024 0 1 0 0,-0.8242 l -0.529297,0 c -0.06343,-4.7473 2.905003,-8.9742 7.339844,-10.5586 l 0,3.5528 a 0.46671334,0.46671334 0 1 0 0.931641,0 l 0,-6.0664 z m -3.732422,13.0664 a 0.4668,0.4668 0 1 0 0,0.9336 l 13.066406,0 a 0.4668,0.4668 0 0 0 0,-0.9336 l -13.066406,0 z m -7,4.039 A 0.46671325,0.46671325 0 0 0 10,1030.8651 l 0,1.961 a 0.46671325,0.46671325 0 0 0 0.466797,0.4668 l 2.449219,0 c 0.261033,0.999 0.651675,1.9554 1.167968,2.8496 l -1.722656,1.7207 a 0.46671325,0.46671325 0 0 0 0,0.6601 l 3.480469,3.4805 a 0.46671325,0.46671325 0 0 0 0.660156,0 l 1.724609,-1.7266 c 0.892795,0.5189 1.847437,0.912 2.845704,1.1758 l 0,2.4453 a 0.46671325,0.46671325 0 0 0 0.466796,0.4668 l 4.921876,0 a 0.46671325,0.46671325 0 0 0 0.466796,-0.4668 l 0,-2.4492 c 0.999008,-0.261 1.955412,-0.6516 2.84961,-1.168 l 1.720703,1.7227 a 0.46671325,0.46671325 0 0 0 0.660156,0 l 3.480469,-3.4805 a 0.46671325,0.46671325 0 0 0 0,-0.6601 l -1.726563,-1.7266 c 0.518374,-0.8924 0.91408,-1.8459 1.177735,-2.8437 l 2.443359,0 A 0.46671325,0.46671325 0 0 0 38,1032.8261 l 0,-1.961 a 0.46671325,0.46671325 0 0 0 -0.466797,-0.4668 l -27.066406,0 z m 0.466797,0.9336 6.082031,0 c -0.01068,2.4777 1.278515,4.7908 3.425781,6.0586 2.239931,1.3227 5.030271,1.2926 7.242188,-0.076 2.078345,-1.2866 3.30911,-3.5602 3.298828,-5.9825 l 6.083984,0 0,1.0274 -2.28125,0 a 0.46671325,0.46671325 0 0 0 -0.455078,0.3633 c -0.26493,1.1626 -0.725427,2.2712 -1.359375,3.2812 a 0.46671325,0.46671325 0 0 0 0.06641,0.5781 l 1.611329,1.6114 -2.820313,2.8203 -1.605469,-1.6075 a 0.46671325,0.46671325 0 0 0 -0.578125,-0.066 c -1.011961,0.6313 -2.123479,1.088 -3.287109,1.3496 a 0.46671325,0.46671325 0 0 0 -0.363281,0.4551 l 0,2.2871 -3.988282,0 0,-2.2832 a 0.46671325,0.46671325 0 0 0 -0.363281,-0.455 c -1.162677,-0.2651 -2.271339,-0.7235 -3.28125,-1.3575 a 0.46671325,0.46671325 0 0 0 -0.578125,0.066 l -1.611332,1.6114 -2.820313,-2.8203 1.607422,-1.6075 a 0.46671325,0.46671325 0 0 0 0.06641,-0.5761 c -0.631207,-1.012 -1.088016,-2.1234 -1.349609,-3.2871 a 0.46671325,0.46671325 0 0 0 -0.455078,-0.3633 l -2.287109,0 0,-1.0274 z m 7.080078,0 11.970703,0 c 0.01138,2.0797 -1.04151,4.0281 -2.826172,5.1328 -1.897456,1.1744 -4.287497,1.1996 -6.208984,0.064 -1.843397,-1.0884 -2.946605,-3.0704 -2.935547,-5.1973 z" color="#000" font-family="sans-serif" font-weight="400" overflow="visible" white-space="normal"/></g></svg>