<svg xmlns="http://www.w3.org/2000/svg" width="32" height="32" viewBox="0 0 32 32"><g transform="translate(310 -1090.862)"><path fill="#34485c" d="m -308,1108.8622 0,0.5176 0,1.4824 0,0.5449 2.84961,0 c 0.28253,1.2568 0.77534,2.4579 1.45703,3.5508 l -2.00586,2.002 3.60156,3.6015 2.00782,-2.0097 c 1.09074,0.6848 2.28927,1.1785 3.54492,1.4648 l 0,2.8457 5.08984,0 0,-2.8496 c 1.25674,-0.2825 2.45786,-0.7734 3.55078,-1.4551 l 2.00196,2.0039 3.60156,-3.6015 -2.00977,-2.0079 c 0.68469,-1.0907 1.18068,-2.2892 1.4668,-3.5449 l 2.84375,0 0,-0.5449 0,-1.4824 0,-0.5176 -7,0 a 7,7 0 0 1 -7,7 7,7 0 0 1 -7,-7 l -7,0 z"/><path fill="#f8b84e" d="m -306.99998,1103.8622 25.99996,0 c 0.55401,0 1.00002,0.446 1.00002,1 l 0,1 c 0,0.554 -0.44601,1 -1.00002,1 l -25.99996,0 c -0.55401,0 -1.00002,-0.446 -1.00002,-1 l 0,-1 c 0,-0.554 0.44601,-1 1.00002,-1 z"/><path fill="#f8b84e" d="m -305.57099,1104.2426 a 11.538618,11.526427 0 0 1 5.62091,-10.1498 11.538618,11.526427 0 0 1 11.61096,-0.1273 11.538618,11.526427 0 0 1 5.84258,10.0241"/><path fill="#f8b84e" d="m -297,1097.3955 0,-6.5333 6,0 0,6.5333"/><path fill="#fcd062" fill-rule="evenodd" style="line-height:normal;text-indent:0;text-align:start;text-decoration-line:none;text-decoration-style:solid;text-decoration-color:#000;text-transform:none;block-progression:tb;isolation:auto;mix-blend-mode:normal" d="M-294.53516 1090.8613l0 3 1 0 0-3-1 0zM-297 1092.8602a11.538618 11.526427 0 0 0-1 .3125l0 3.6895 1 0 0-4.002zM-291 1092.872l0 3.9902 1 0 0-3.668a11.538618 11.526427 0 0 0-1-.3222z" color="#000" font-family="sans-serif" font-weight="400" overflow="visible" white-space="normal"/><path fill="#fcd062" d="m -305.50977,1102.8622 a 11.538618,11.526427 0 0 0 -0.0508,1 l 23.06057,0 a 11.538618,11.526427 0 0 0 -0.0664,-1 l -22.94336,0 z"/></g></svg>